<?xml version="1.0" encoding="UTF-8"?><svg xmlns="http://www.w3.org/2000/svg" xmlns:xlink="http://www.w3.org/1999/xlink" width="375pt" zoomAndPan="magnify" viewBox="0 0 375 374.999991" height="374.999991pt" preserveAspectRatio="xMidYMid meet" version="1.2"><defs><g/></defs><g xml:id="surface1" id="surface1"><g style="fill:rgb(92.549133%,34.509277%,38.819885%);fill-opacity:1;"><g transform="translate(20.91875, 281.143736)"><path style="stroke:none;" d="M 88.53125 0 L 27.515625 0 C 25.316406 0 23.421875 -0.796875 21.828125 -2.390625 C 20.234375 -3.984375 19.4375 -5.878906 19.4375 -8.078125 L 19.4375 -201.28125 C 19.4375 -203.46875 20.234375 -205.359375 21.828125 -206.953125 C 23.421875 -208.554688 25.316406 -209.359375 27.515625 -209.359375 L 88.53125 -209.359375 C 90.71875 -209.359375 92.609375 -208.554688 94.203125 -206.953125 C 95.804688 -205.359375 96.609375 -203.46875 96.609375 -201.28125 L 96.609375 -8.078125 C 96.609375 -5.878906 95.804688 -3.984375 94.203125 -2.390625 C 92.609375 -0.796875 90.71875 0 88.53125 0 Z M 88.53125 0 "/></g></g><g style="fill:rgb(92.549133%,34.509277%,38.819885%);fill-opacity:1;"><g transform="translate(136.960597, 281.143736)"><path style="stroke:none;" d="M 150.4375 -209.359375 L 206.0625 -209.359375 C 207.851562 -209.359375 209.394531 -208.707031 210.6875 -207.40625 C 211.988281 -206.113281 212.640625 -204.867188 212.640625 -203.671875 C 212.640625 -202.472656 212.539062 -201.476562 212.34375 -200.6875 L 156.125 -9.875 C 154.320312 -3.289062 149.832031 0 142.65625 0 L 74.46875 0 C 67.289062 0 62.804688 -3.289062 61.015625 -9.875 L 4.78125 -200.6875 C 4.582031 -201.476562 4.484375 -202.472656 4.484375 -203.671875 C 4.484375 -204.867188 5.128906 -206.113281 6.421875 -207.40625 C 7.722656 -208.707031 9.269531 -209.359375 11.0625 -209.359375 L 66.6875 -209.359375 C 73.875 -209.359375 78.363281 -206.066406 80.15625 -199.484375 L 108.5625 -88.234375 L 136.984375 -199.484375 C 138.773438 -206.066406 143.257812 -209.359375 150.4375 -209.359375 Z M 150.4375 -209.359375 "/></g></g></g></svg>