<svg width="654" height="682" xmlns="http://www.w3.org/2000/svg" data-name="Layer 1">
 <title>mathematics</title>

 <g>
  <title>Layer 1</title>
  <path id="svg_1" fill="#3f3d56" d="m620,635.61354c0,25.68 -138.79,46.5 -310,46.5s-310,-20.82 -310,-46.5c0,-18.18 69.57,-33.93 170.96,-41.57c41.81,-3.16 89.05,-4.93 139.04,-4.93c20.55,0 40.63,0.3 60.05,0.87c142.47002,4.20001 249.95,23.02996 249.95,45.63z"/>
  <ellipse id="svg_2" opacity="0.1" ry="14.5" rx="119" cy="630.61354" cx="270"/>
  <ellipse id="svg_3" fill="#3f3d56" ry="120" rx="112.5" cy="521.11354" cx="269.5"/>
  <rect id="svg_4" fill="#4285f4" height="64" width="70" y="592.11354" x="235"/>
  <polygon id="svg_5" fill="#575a89" points="396.50000386718784,607.614013671875 392.50000386718784,629.614013671875 418.50000386718784,633.614013671875 435.50000386718784,623.614013671875 434.50000386718784,607.614013671875 396.50000386718784,607.614013671875 "/>
  <path id="svg_6" fill="#a0616a" d="m265.5,194.61354s-2,23 -7,24s11,41 11,41l24,0l19,-5l-9,-22s-12,-16 -3,-29s-35,-9 -35,-9z"/>
  <path id="svg_7" opacity="0.1" d="m265.5,194.61354s-2,23 -7,24s11,41 11,41l24,0l19,-5l-9,-22s-12,-16 -3,-29s-35,-9 -35,-9z"/>
  <path id="svg_8" fill="#2f2e41" d="m215.5,370.61354s-26,50 -5,60s26,9 26,12s-4,2 -2,7s-4,25 2,37s4,21 4,21s0,1 2,5s3,7 2,9s-7,15 -1,18s37,5 40,0s-3,-8 0,-11s5,-4 3,-6s-4,-27 -4,-27s5,-29 3,-33s-5,-8 -3,-11s4,-2 5,-6s3,-13 3,-13l11,-1l26,5s29,32 61,42c0,0 9,9 12,9s3,0 2,2s-4,2 -2,4s5,-1 3,2s-4,3 -2,5s-1,13 -1,14s-9,95 -6,97s45,8 48,0s-2,-18 -2,-18s15,-120 11,-128s-18,-44 -93,-67c0,0 -21,-4 -21,-7s-2,-22 -6,-23s-27,-2 -27,-2l-29,9l-40,-7l-20,2z"/>
  <path id="svg_9" fill="#2f2e41" d="m250.5,538.61354l-5,18s-4,29 1,36c3.92739,5.49834 10.93965,12.23063 23.94449,13.4122a16.07115,16.07115 0 0 0 16.77855,-11.11774a5.00653,5.00653 0 0 0 0.277,-1.29446c0,-2 -3,-26 -3,-26l-5,-25l-1,-7l-28.00004,3z"/>
  <path id="svg_10" fill="#2f2e41" d="m396.5,624.61354s-5,-5 -6,0s-5,26 2,27s74,11 81,7s20,-10 12,-13s-31,-12 -31,-12s-13,-17 -15,-18s-13,1 -18,5s-25,4 -25,4z"/>
  <circle id="svg_11" fill="#a0616a" r="31" cy="184.61354" cx="289.5"/>
  <path id="svg_12" fill="#575a89" d="m286.5,254.61354l-12,-13l-13.30147,-26s-9.69853,-3 -11.69853,2s-38,21 -38,21s9,84 5,92s-11,40 -5,43s34,0 43,4s35,4 42,-1s9,-9 16,-6c5.95926,2.554 19.89075,-84.761 23.90164,-110.781a11.844,11.844 0 0 0 -4.90807,-11.50971c-8.97276,-6.29384 -25.13277,-17.13965 -27.99357,-15.70925c-4,1.99996 -17,21.99996 -17,21.99996z"/>
  <path id="svg_13" fill="#575a89" d="m329.5,250.61354l0,0a11.85952,11.85952 0 0 1 8.91063,10.19577l8.08936,72.80423s-20,43 -30,14s13.00001,-97 13.00001,-97z"/>
  <path id="svg_14" fill="#575a89" d="m327.5,340.61354l22,-6s4,28 8,28s-14,16 -23,14s-22,-9 -23,-14s9,-26 9,-26l7,4z"/>
  <path id="svg_15" fill="#2f2e41" d="m266.09829,197.98651c2.10792,-4.648 1.74193,-10.06966 3.48463,-14.86653a17.72716,17.72716 0 0 1 26.95315,-8.38071c2.24178,1.59841 4.48928,3.84417 7.22559,3.539c2.94671,-0.32859 5.575,-3.61593 8.2842,-2.41116c3.00277,1.33533 2.19174,6.71676 5.23391,7.95972c1.6013,0.65426 3.49355,-0.35311 4.41715,-1.8157a11.2246,11.2246 0 0 0 1.28583,-4.97622c0.41976,-4.26508 0.79909,-8.779 -1.05062,-12.64493a30.28893,30.28893 0 0 1 -2.02829,-4.08992a13.99385,13.99385 0 0 1 -0.38561,-4.03439c-0.01689,-5.01309 -0.38281,-10.24215 -2.90568,-14.57417c-2.79955,-4.80711 -7.97447,-7.881 -13.37326,-9.22227s-11.055,-1.13561 -16.59807,-0.66635c-9.16324,0.77574 -18.71927,2.43858 -25.93856,8.135a10.14728,10.14728 0 0 0 -2.49336,2.61953a13.525,13.525 0 0 0 -1.32811,3.84148a79.44958,79.44958 0 0 1 -6.96764,18.27716a39.65627,39.65627 0 0 0 -3.59543,7.76544c-0.76559,2.75442 -0.71387,5.89343 0.8887,8.26085c1.30475,1.92745 3.39065,2.95463 5.02945,4.53044c1.62387,1.56146 2.38368,4.56438 4.18252,5.74673c1.57033,1.03215 3.4513,0.30356 5.0529,1.39752c2.05626,1.40453 2.20478,4.48417 4.6266,5.60948z"/>
  <path id="svg_16" fill="#f2f2f2" d="m291.5,269.61354l3,-6s44,13 53,25c0,0 22,-14 34,-12l12,2l-37,33l-47,-4l-18,-38z"/>
  <path id="svg_17" fill="#4285f4" d="m289.5,263.61354l-41,57l59,29s5.51572,3 9.75786,0l39.24214,-18l37,-53l-37,19s-4,-8 -12,-4l-55,-30z"/>
  <path id="svg_18" fill="#a0616a" d="m352.5,364.61354l8,-21s18,-23 8,-34s-21,32 -21,32l5,23z"/>
  <path id="svg_19" fill="#a0616a" d="m260.19768,361.26233l17.45624,-14.152s27.11,-10.865 23.97851,-25.39746s-34.22053,17.14513 -34.22053,17.14513l-7.21422,22.40433z"/>
  <path id="svg_20" opacity="0.1" d="m217,260.11354l-1,0s-15.5,-18.5 -18.5,6.5s-13,108 13,111s44.5,-12.5 44.5,-12.5s19,-29 12,-29c-3.38691,0 -12.59835,-1.52116 -21,-1c-8.96272,0.556 -17.01615,3.08078 -16.5,0.5c1,-5 15.5,-68.5 -12.5,-75.5z"/>
  <path id="svg_21" fill="#575a89" d="m215.5,240.61354l-4,-2s-16,3 -19,28s-13,108 13,111s61,-4 61,-4s7,-38 0,-38s-43,5 -42,0s19,-88 -9,-95z"/>
  <polygon id="svg_22" fill="#575a89" points="338.00000386718784,353.114013671875 349.02701192382847,336.2130126953125 356.00000386718784,364.114013671875 338.00000386718784,372.114013671875 338.00000386718784,353.114013671875 "/>
  <circle id="svg_23" fill="#f2f2f2" r="27" cy="85.11354" cx="111.47314"/>
  <rect id="svg_24" fill="#f2f2f2" height="64" width="64" y="286.11354" x="79.47314"/>
  <polygon id="svg_25" fill="#f2f2f2" points="372.00000386718784,0 388.19900899414097,28.05699920654297 404.39700704101597,56.11399841308594 372.00000386718784,56.11399841308594 339.6030006933597,56.11399841308594 355.8009987402347,28.05699920654297 372.00000386718784,0 "/>
  <path id="svg_26" fill="#4285f4" d="m654.23658,168.22903q-0.58078,17.95539 -8.74513,28.78352q-8.16571,10.82931 -19.40145,10.83029q-9.15176,0 -16.04242,-10.59861q-6.89283,-10.5984 -6.892,-32.60592q0,-4.8648 0.23169,-9.26642q0.23089,-4.40064 0.57921,-8.33968l4.05409,-38.108l-26.7569,0q-6.94938,72.27771 -11.40911,86.00356q-4.46013,13.72556 -15.11568,13.726a12.78019,12.78019 0 0 1 -8.57155,-3.59073a12.06434,12.06434 0 0 1 -4.0541,-9.4983q0,-5.326 8.3976,-14.884q8.39721,-9.55611 9.32434,-17.43233l6.94976,-54.32423l-11.23515,0a19.9108,19.9108 0 0 0 -9.09265,2.25854a17.15586,17.15586 0 0 0 -6.54451,5.27024l-4.98084,7.41313l-4.05409,0q5.67412,-17.6052 13.95764,-26.46706q8.28,-8.86106 19.05393,-8.861l88.49423,0l0,20.38611l-29.8842,0q-1.39011,13.89963 -2.14289,27.799q-0.75455,13.89963 -0.75278,27.9151q0,9.499 4.40162,15.40548q4.40064,5.90738 11.00386,5.90718q4.05312,0 8.51344,-3.30132a11.97,11.97 0 0 0 5.03856,-8.62908q0.34754,-2.54667 0.52109,-3.99618q0.17377,-1.44695 0.174,-1.79536l4.98039,0.00007z"/>
  <path id="svg_27" opacity="0.1" d="m654.23658,168.22903q-0.58078,17.95539 -8.74513,28.78352q-8.16571,10.82931 -19.40145,10.83029q-9.15176,0 -16.04242,-10.59861q-6.89283,-10.5984 -6.892,-32.60592q0,-4.8648 0.23169,-9.26642q0.23089,-4.40064 0.57921,-8.33968l4.05409,-38.108l-26.7569,0q-6.94938,72.27771 -11.40911,86.00356q-4.46013,13.72556 -15.11568,13.726a12.78019,12.78019 0 0 1 -8.57155,-3.59073a12.06434,12.06434 0 0 1 -4.0541,-9.4983q0,-5.326 8.3976,-14.884q8.39721,-9.55611 9.32434,-17.43233l6.94976,-54.32423l-11.23515,0a19.9108,19.9108 0 0 0 -9.09265,2.25854a17.15586,17.15586 0 0 0 -6.54451,5.27024l-4.98084,7.41313l-4.05409,0q5.67412,-17.6052 13.95764,-26.46706q8.28,-8.86106 19.05393,-8.861l88.49423,0l0,20.38611l-29.8842,0q-1.39011,13.89963 -2.14289,27.799q-0.75455,13.89963 -0.75278,27.9151q0,9.499 4.40162,15.40548q4.40064,5.90738 11.00386,5.90718q4.05312,0 8.51344,-3.30132a11.97,11.97 0 0 0 5.03856,-8.62908q0.34754,-2.54667 0.52109,-3.99618q0.17377,-1.44695 0.174,-1.79536l4.98039,0.00007z"/>
  <path id="svg_28" fill="#4285f4" d="m654.23658,164.61003q-0.58078,17.95539 -8.74513,28.78352q-8.16571,10.82931 -19.40145,10.83029q-9.15176,0 -16.04242,-10.5986q-6.89283,-10.59841 -6.892,-32.60593q0,-4.8648 0.23169,-9.26642q0.23089,-4.40064 0.57921,-8.33967l4.05409,-38.10806l-26.7569,0q-6.94938,72.27776 -11.40911,86.00361q-4.46013,13.72557 -15.11568,13.726a12.78019,12.78019 0 0 1 -8.57155,-3.59073a12.06432,12.06432 0 0 1 -4.0541,-9.49829q0,-5.326 8.3976,-14.884q8.39721,-9.55612 9.32434,-17.43233l6.94976,-54.32424l-11.23515,0a19.9108,19.9108 0 0 0 -9.09265,2.25854a17.15586,17.15586 0 0 0 -6.54451,5.27024l-4.98084,7.41314l-4.05409,0q5.67412,-17.60522 13.95764,-26.46706q8.28,-8.86107 19.05393,-8.861l88.49423,0l0,20.38611l-29.8842,0q-1.39011,13.89963 -2.14289,27.79906q-0.75455,13.89962 -0.75278,27.91509q0,9.499 4.40162,15.40548q4.40064,5.90738 11.00386,5.90718q4.05312,0 8.51344,-3.30132a11.97,11.97 0 0 0 5.03856,-8.62908q0.34754,-2.54667 0.52109,-3.99617q0.17377,-1.447 0.174,-1.79537l4.98039,0.00001z"/>
 </g>
</svg>