<svg width="1440" height="829" viewBox="0 0 1440 829" fill="none" xmlns="http://www.w3.org/2000/svg">
<rect width="1440" height="829" fill="white"/>
<path d="M819.656 570.092C811.034 555.944 815.828 538.028 830.364 530.077L915.712 483.392C930.248 475.441 949.021 480.465 957.643 494.613L1006.09 574.11C1014.71 588.259 1009.92 606.174 995.379 614.125L910.031 660.81C895.495 668.761 876.722 663.738 868.1 649.589L819.656 570.092Z" fill="#EC5863"/>
<rect width="81.1315" height="78.9717" rx="16" transform="matrix(0.877326 -0.479896 0.520377 0.853936 70.5866 606.602)" fill="#EC5863"/>
<rect width="81.1315" height="78.9717" rx="16" transform="matrix(0.877326 -0.479896 0.520377 0.853936 1258.66 276.487)" fill="#EC5863"/>
<path d="M504.13 351.651C520.189 355.728 529.552 371.957 525.043 387.9L510.004 441.076C505.495 457.02 488.821 466.639 472.762 462.562L413.851 447.607C397.792 443.53 388.429 427.301 392.938 411.358L407.977 358.182C412.486 342.238 429.16 332.619 445.219 336.696L504.13 351.651Z" fill="#EC5863"/>
</svg>
