<svg width="876" height="682" xmlns="http://www.w3.org/2000/svg" data-name="Layer 1">

 <g>
  <title>Layer 1</title>
  <path id="svg_1" fill="#2f2e41" d="m504.97006,32.19404c7.51624,15.99516 -8.41069,20.5258 -26.65516,29.099s-31.8977,17.94247 -39.41393,1.94732s-13.61474,-47.74263 12.19523,-59.87092c26.69916,-12.5461 46.35763,12.82944 53.87386,28.8246z"/>
  <circle id="svg_2" fill="#ffb8b8" r="24.56103" cy="39.08912" cx="467.74627"/>
  <path id="svg_3" fill="#2f2e41" d="m589.4262,148.01231c-0.85009,-1.11 -1.70019,-2.2 -2.56006,-3.26q-1.66479,-2.07 -3.35009,-4.01c-12.73,-14.69 -26.27,-23.94 -41.17969,-24.93l-0.02,0l-0.22021,-0.02l-29.71,28.96l-10.10009,9.84l0.22021,0.54l5.44971,13.57l95.49023,0a234.83392,234.83392 0 0 0 -14.02001,-20.69z"/>
  <path id="svg_4" fill="#2f2e41" d="m441.0379,48.97733l0,0l8.792,-4.13144l-1.22476,-12.68333l5.87908,10.49623l4.20223,-1.97466l-0.7144,-7.39862l3.42957,6.12274l31.22444,-14.67258l0,0a26,26 0 0 0 -34.589,-12.47385l-4.52533,2.12648a26,26 0 0 0 -12.47383,34.58903z"/>
  <path id="svg_5" fill="#f2f2f2" d="m644.52606,494.80016l-512.8385,0a16.51867,16.51867 0 0 1 -16.5,-16.5l0,-308.15381a12.10184,12.10184 0 0 1 12.08789,-12.08838l521.45349,0a12.31112,12.31112 0 0 1 12.29712,12.29736l0,307.94483a16.51868,16.51868 0 0 1 -16.5,16.5z"/>
  <path id="svg_6" fill="#fff" d="m147.68756,478.30016l480.8385,0a16,16 0 0 0 16,-16l0,-261.54785a16,16 0 0 0 -16,-16l-480.8385,0a16,16 0 0 0 -16,16l0,261.54785a16,16 0 0 0 16,16z"/>
  <path id="svg_7" fill="#4285f4" d="m660.79632,169.20254l-545.84033,0l0,-8.40039a16.57376,16.57376 0 0 1 16.56006,-16.5498l512.72021,0a16.57368,16.57368 0 0 1 16.56006,16.5498l0,8.40039z"/>
  <circle id="svg_8" fill="#fff" r="4.28342" cy="156.7523" cx="145.05135"/>
  <circle id="svg_9" fill="#fff" r="4.28342" cy="156.7523" cx="161.31015"/>
  <circle id="svg_10" fill="#fff" r="4.28342" cy="156.7523" cx="177.56896"/>
  <path id="svg_11" fill="#ccc" d="m403.11024,421.57908l-43,0a9.51081,9.51081 0 0 1 -9.5,-9.5l0,-43a9.51081,9.51081 0 0 1 9.5,-9.5l43,0a9.51081,9.51081 0 0 1 9.5,9.5l0,43a9.51081,9.51081 0 0 1 -9.5,9.5zm-43,-60a7.50835,7.50835 0 0 0 -7.5,7.5l0,43a7.50836,7.50836 0 0 0 7.5,7.5l43,0a7.50836,7.50836 0 0 0 7.5,-7.5l0,-43a7.50835,7.50835 0 0 0 -7.5,-7.5l-43,0z"/>
  <path id="svg_12" fill="#ccc" d="m394.61024,409.57908l-26,0a3.00328,3.00328 0 0 1 -3,-3l0,-32a3.00328,3.00328 0 0 1 3,-3l18.83935,0a3.0073,3.0073 0 0 1 1.8794,0.66162l7.16016,5.7539a2.9844,2.9844 0 0 1 1.12109,2.33838l0,26.2461a3.00328,3.00328 0 0 1 -3,3zm-26,-36a1.0013,1.0013 0 0 0 -1,1l0,32a1.0013,1.0013 0 0 0 1,1l26,0a1.0013,1.0013 0 0 0 1,-1l0,-26.2461a0.99457,0.99457 0 0 0 -0.37354,-0.77929l-7.16113,-5.7544a1.00206,1.00206 0 0 0 -0.626,-0.22021l-18.83933,0z"/>
  <path id="svg_13" fill="#ccc" d="m389.61024,385.57908l-16,0a1,1 0 0 1 0,-2l16,0a1,1 0 0 1 0,2z"/>
  <path id="svg_14" fill="#ccc" d="m389.61024,391.57908l-16,0a1,1 0 0 1 0,-2l16,0a1,1 0 0 1 0,2z"/>
  <path id="svg_15" fill="#ccc" d="m389.61024,397.57908l-16,0a1,1 0 0 1 0,-2l16,0a1,1 0 0 1 0,2z"/>
  <path id="svg_16" fill="#ccc" d="m505.11024,421.57908l-43,0a9.51081,9.51081 0 0 1 -9.5,-9.5l0,-43a9.51081,9.51081 0 0 1 9.5,-9.5l43,0a9.51081,9.51081 0 0 1 9.5,9.5l0,43a9.51081,9.51081 0 0 1 -9.5,9.5zm-43,-60a7.50835,7.50835 0 0 0 -7.5,7.5l0,43a7.50836,7.50836 0 0 0 7.5,7.5l43,0a7.50836,7.50836 0 0 0 7.5,-7.5l0,-43a7.50835,7.50835 0 0 0 -7.5,-7.5l-43,0z"/>
  <path id="svg_17" fill="#ccc" d="m497.61024,401.57908l-28,0a3.00328,3.00328 0 0 1 -3,-3l0,-16a3.00328,3.00328 0 0 1 3,-3l28,0a3.00328,3.00328 0 0 1 3,3l0,16a3.00328,3.00328 0 0 1 -3,3zm-28,-20a1.001,1.001 0 0 0 -1,1l0,16a1.001,1.001 0 0 0 1,1l28,0a1.001,1.001 0 0 0 1,-1l0,-16a1.001,1.001 0 0 0 -1,-1l-28,0z"/>
  <path id="svg_18" fill="#ccc" d="m483.61024,393.21726a3.00345,3.00345 0 0 1 -1.58984,-0.45264l-14.94043,-9.3374a1.00027,1.00027 0 0 1 1.06054,-1.69629l14.94043,9.3374a1.00555,1.00555 0 0 0 1.05957,0l14.93946,-9.3374a1.00027,1.00027 0 0 1 1.06054,1.69629l-14.93945,9.3374a3.00432,3.00432 0 0 1 -1.59082,0.45264z"/>
  <path id="svg_19" fill="#ccc" d="m301.11024,421.57908l-43,0a9.51081,9.51081 0 0 1 -9.5,-9.5l0,-43a9.51081,9.51081 0 0 1 9.5,-9.5l43,0a9.51081,9.51081 0 0 1 9.5,9.5l0,43a9.51081,9.51081 0 0 1 -9.5,9.5zm-43,-60a7.50835,7.50835 0 0 0 -7.5,7.5l0,43a7.50836,7.50836 0 0 0 7.5,7.5l43,0a7.50836,7.50836 0 0 0 7.5,-7.5l0,-43a7.50835,7.50835 0 0 0 -7.5,-7.5l-43,0z"/>
  <path id="svg_20" fill="#ccc" d="m293.61024,401.57908l-28,0a3.00328,3.00328 0 0 1 -3,-3l0,-16a3.00328,3.00328 0 0 1 3,-3l28,0a3.00328,3.00328 0 0 1 3,3l0,16a3.00328,3.00328 0 0 1 -3,3zm-28,-20a1.001,1.001 0 0 0 -1,1l0,16a1.001,1.001 0 0 0 1,1l28,0a1.001,1.001 0 0 0 1,-1l0,-16a1.001,1.001 0 0 0 -1,-1l-28,0z"/>
  <path id="svg_21" fill="#ccc" d="m289.17225,401.57908l-20.124,0a1.99958,1.99958 0 0 1 -1.73194,-3l6.06153,-10.5a2.00022,2.00022 0 0 1 3.46435,0l3.915,6.78125l2.26807,-3.92871a2.00022,2.00022 0 0 1 3.46435,0l4.415,7.64746a2,2 0 0 1 -1.73242,3l0.00006,0zm0,-2l0,0l-4.415,-7.64746l-3.13379,5.42871a0.99985,0.99985 0 0 1 -0.86621,0.5l0,0a0.99985,0.99985 0 0 1 -0.86621,-0.5l-4.78076,-8.28125l-6.062,10.5l20.12397,0z"/>
  <circle id="svg_22" fill="#ccc" r="2" cy="385.57888" cx="290.61013"/>
  <polygon id="svg_23" fill="#ffb8b8" points="768.8250085115433,648.150022983551 756.5649987459183,648.1489853858948 750.7329674959183,600.8610215187073 768.8270226716995,600.8619980812073 768.8250085115433,648.150022983551 "/>
  <path id="svg_24" fill="#2f2e41" d="m771.95147,660.03388l-39.53051,-0.00146l0,-0.5a15.38605,15.38605 0 0 1 15.38647,-15.38623l0.001,0l24.1438,0.001l-0.00076,15.88669z"/>
  <polygon id="svg_25" fill="#ffb8b8" points="818.8250085115433,648.150022983551 806.5649987459183,648.1489853858948 800.7329674959183,600.8610215187073 818.8270226716995,600.8619980812073 818.8250085115433,648.150022983551 "/>
  <path id="svg_26" fill="#2f2e41" d="m821.95147,660.03388l-39.53051,-0.00146l0,-0.5a15.38605,15.38605 0 0 1 15.38647,-15.38623l0.001,0l24.1438,0.001l-0.00076,15.88669z"/>
  <path id="svg_27" fill="#2f2e41" d="m815.14973,627.65033l-11.35449,-3.4541a4.49323,4.49323 0 0 1 -3.16577,-3.833l-10.58594,-100.32618a0.47984,0.47984 0 0 0 -0.47851,-0.44726a0.46935,0.46935 0 0 0 -0.5105,0.40918l-17.731,97.19922a4.50036,4.50036 0 0 1 -5.33471,3.59961l-14.51144,-2.98926a4.51613,4.51613 0 0 1 -3.58179,-4.71192l10.7854,-159.3125l73.13794,-7.8916l-10.86792,177.72656a4.50464,4.50464 0 0 1 -4.48437,4.22754a4.52613,4.52613 0 0 1 -1.3169,-0.19629z"/>
  <circle id="svg_28" fill="#ffb8b8" r="24.56103" cy="290.48693" cx="815.08028"/>
  <path id="svg_29" fill="#4285f4" d="m758.56844,454.71967l15.85815,-99.85107a37.85746,37.85746 0 0 1 48.00537,-30.39942l0,0a37.74323,37.74323 0 0 1 26.60108,43.26221l-16.59107,89.17187l-73.87353,-2.18359z"/>
  <path id="svg_30" fill="#ffb8b8" d="m821.86083,472.58563a10.0558,10.0558 0 0 0 1.747,-15.32l16.39619,-31.75128l-18.46486,1.97048l-12.73924,29.84946a10.11027,10.11027 0 0 0 13.06089,15.25138l0.00002,-0.00004z"/>
  <path id="svg_31" fill="#4285f4" d="m825.37177,451.66509a4.50552,4.50552 0 0 1 -2.4265,-1.15083l-6.27324,-5.79662a4.51468,4.51468 0 0 1 -1.09178,-5.05417l12.53746,-29.71816l-1.77859,-58.71981a14.49652,14.49652 0 1 1 28.727,3.91856l3.041,36.91226a46.37346,46.37346 0 0 1 -8.93769,31.39683l-19.55206,26.43232a4.505,4.505 0 0 1 -3.19513,1.80387a4.45452,4.45452 0 0 1 -1.05047,-0.02425z"/>
  <path id="svg_32" fill="#ffb8b8" d="m673.64091,277.10514a10.05575,10.05575 0 0 0 13.42647,7.58193l22.84575,27.47819l5.38477,-17.77183l-22.52025,-23.36914a10.11027,10.11027 0 0 0 -19.13674,6.08085z"/>
  <path id="svg_33" fill="#4285f4" d="m691.5369,288.49504a4.50564,4.50564 0 0 1 2.00583,-1.78577l7.78377,-3.51672a4.51467,4.51467 0 0 1 5.07986,0.96521l22.478,23.13213l54.76621,21.25658a14.49652,14.49652 0 1 1 -14.80889,24.92573l-35.17667,-11.59151a46.37351,46.37351 0 0 1 -25.42736,-20.47176l-16.71728,-28.31048a4.50493,4.50493 0 0 1 -0.41535,-3.64558a4.45446,4.45446 0 0 1 0.43188,-0.95783z"/>
  <polygon id="svg_34" opacity="0.1" points="835.0020104646683,375.65200662612915 834.0020104646683,407.65200662612915 815.5800133943558,439.66299295425415 830.9619714021683,403.9899888038635 835.0020104646683,375.65200662612915 "/>
  <path id="svg_35" fill="#2f2e41" d="m812.2663,295.10267a6.42292,6.42292 0 0 1 -7.03053,-4.70224a9.76432,9.76432 0 0 0 -6.95075,-7.2736c-4.5055,-1.02949 -10.01213,1.09128 -13.31351,-2.32232a6.63748,6.63748 0 0 1 -1.57539,-5.84234c0.60807,-3.31718 2.981,-5.8232 5.56326,-7.8275a34.06226,34.06226 0 0 1 18.8661,-7.05067a67.67657,67.67657 0 0 1 10.62084,0.52837a47.00933,47.00933 0 0 1 10.86368,1.98538a25.57605,25.57605 0 0 1 16.00171,18.68024a29.528,29.528 0 0 1 -6.05709,24.13034a31.70221,31.70221 0 0 1 -12.16059,9.25872a4.74429,4.74429 0 0 1 -3.60621,0.18291c-2.95734,-1.17583 -2.47409,-4.83917 -1.12569,-7.28253c1.443,-2.61478 3.66335,-5.1464 2.50287,-8.32859a6.302,6.302 0 0 0 -3.12714,-3.3662c-2.93992,-1.49928 -6.22821,-1.14456 -9.38876,-0.77957l-0.0828,0.0096z"/>
  <path id="svg_36" fill="#fff" d="m665.43324,308.97264l-304,0a16.51867,16.51867 0 0 1 -16.5,-16.5l0,-65a16.51868,16.51868 0 0 1 16.5,-16.5l304,0a16.519,16.519 0 0 1 16.5,16.5l0,65a16.519,16.519 0 0 1 -16.5,16.5z"/>
  <path id="svg_37" fill="#3f3d56" d="m665.43307,309.47278l-304,0a17.01917,17.01917 0 0 1 -17,-17l0,-65a17.01916,17.01916 0 0 1 17,-17l304,0a17.01916,17.01916 0 0 1 17,17l0,65a17.01917,17.01917 0 0 1 -17,17zm-304,-97a15.017,15.017 0 0 0 -15,15l0,65a15.017,15.017 0 0 0 15,15l304,0a15.017,15.017 0 0 0 15,-15l0,-65a15.017,15.017 0 0 0 -15,-15l-304,0z"/>
  <path id="svg_38" fill="#f2f2f2" d="m628.43307,292.97278l-230,0a16.51868,16.51868 0 0 1 -16.5,-16.5l0,-34a16.51867,16.51867 0 0 1 16.5,-16.5l230,0a16.51866,16.51866 0 0 1 16.5,16.5l0,34a16.51867,16.51867 0 0 1 -16.5,16.5z"/>
  <circle id="svg_39" fill="#ff6584" r="19.73228" cy="254.91484" cx="447.92802"/>
  <path id="svg_40" fill="#3f3d56" d="m614.14008,290.98144l-27.85254,-23.35968l-27.37158,-22.95636a4.00031,4.00031 0 0 0 -5.15283,0.01l-27.28321,23.06165l-6.66406,5.6333l-10.04834,-8.42737l-30.53711,-25.61084a3.99964,3.99964 0 0 0 -5.15234,0.00989l-30.438,25.72833l-30.917,26.13349a0.99994,0.99994 0 0 0 0.64746,1.76373l63.38672,-0.12213l20.064,-0.03864l-0.19629,0.166l59.80762,-0.11524l57.0669,-0.10992a0.99989,0.99989 0 0 0 0.6406,-1.76621z"/>
  <path id="svg_41" fill="#ccc" d="m875.27166,661.47278l-192,0a1,1 0 0 1 0,-2l192,0a1,1 0 0 1 0,2z"/>
  <path id="svg_42" fill="#ffb8b8" d="m604.05609,131.91228a11.22094,11.22094 0 0 0 -7.25,-5.1a10.30111,10.30111 0 0 0 -1.65967,-0.21l-76.19043,-68.12a9.01491,9.01491 0 0 0 -5.62988,-2.69a7.66989,7.66989 0 0 0 -1.27,-0.04a9.05493,9.05493 0 0 0 -5.96,15.48l29.16992,25.43l47.8999,41.75a11.91555,11.91555 0 0 0 0.3501,2.33a11.26607,11.26607 0 0 0 9.66992,8.37a11.09212,11.09212 0 0 0 6.05029,-1a11.40659,11.40659 0 0 0 3.87988,-2.97c0.10987,-0.13 0.21,-0.25 0.31006,-0.39a11.29281,11.29281 0 0 0 0.62989,-12.84l0.00002,0z"/>
  <path id="svg_43" fill="#ffb8b8" d="m473.73626,197.5623l-0.71,-28.86l-0.6001,-23.95l-0.41015,-16.76l-0.81006,-32.67a9.04565,9.04565 0 0 0 -15.71,-5.25a6.92326,6.92326 0 0 0 -0.75,0.96a8.93574,8.93574 0 0 0 -1.56006,6.05l1.78027,47.67l0.89014,23.95l1.13965,30.55a12.0475,12.0475 0 0 0 -0.88965,1.41a11.248,11.248 0 0 0 -0.71,8.84a11.31144,11.31144 0 0 0 15.55957,6.63a11.30069,11.30069 0 0 0 2.78027,-18.57l0.00012,0z"/>
  <path id="svg_44" fill="#ccc" d="m542.33636,115.8123l-7.07031,-19.15l-11.43994,-31.02a16.0055,16.0055 0 0 0 -9.9502,-9.68c-0.17969,-0.06 -0.36963,-0.12 -0.5498,-0.17005a15.984,15.984 0 0 0 -13.23975,1.82l-38.53027,24.44a16.09316,16.09316 0 0 0 -5.27,21.75a276.323,276.323 0 0 0 15.73,24.19c4.49023,6.11 12.85009,6.76 14.30029,16.76l28.40967,0l28.76025,-25.82l-1.14994,-3.11995z"/>
  <circle id="svg_45" fill="#a0616a" r="23.17166" cy="326.68231" cx="101.16464"/>
  <path id="svg_46" fill="#a0616a" d="m158.05134,310.7321q0.3425,0.27261 0.66395,0.57794a10.38021,10.38021 0 0 1 -0.41708,15.48365a9.72179,9.72179 0 0 1 -0.81382,0.61338l1.56823,52.94493a8.06132,8.06132 0 0 1 -5.545,7.867l-0.09553,0.02052l-42.98869,4.578a8.89852,8.89852 0 1 1 -1.72218,-17.71279l30.64427,-2.69888l5.29962,-45.851a9.87574,9.87574 0 0 1 -0.97155,-0.99a10.38,10.38 0 0 1 14.3778,-14.83273l-0.00002,-0.00002z"/>
  <polygon id="svg_47" fill="#a0616a" points="139.32799923419952,649.1740097999573 150.89500057697296,649.1740097999573 156.39699947834015,604.5609726905823 139.32600033283234,604.5609726905823 139.32799923419952,649.1740097999573 "/>
  <path id="svg_48" fill="#2f2e41" d="m136.37818,645.39784l22.778,-0.00093l0.00092,0a14.5157,14.5157 0 0 1 14.51609,14.51587l0,0.47171l-37.29436,0.00139l-0.00065,-14.98804z"/>
  <polygon id="svg_49" fill="#a0616a" points="24.36599552631378,633.182005405426 34.30399715900421,639.098997592926 61.85699474811554,603.5819687843323 47.188995480537415,594.848997592926 24.36599552631378,633.182005405426 "/>
  <path id="svg_50" fill="#2f2e41" d="m23.76293,628.42829l19.57164,11.65289l0.00079,0.00047a14.5157,14.5157 0 0 1 5.04582,19.89892l-0.24134,0.40531l-32.04449,-19.07934l7.66758,-12.87825z"/>
  <path id="svg_51" fill="#2f2e41" d="m153.62393,633.41662l-12.95169,0a4.23772,4.23772 0 0 1 -4.22149,-3.79676l-13.05719,-122.73739a1.41541,1.41541 0 0 0 -2.69716,-0.433l-23.5554,52.15872l-41.70358,68.00266a4.26564,4.26564 0 0 1 -5.32891,1.66575l-16.66024,-7.33a4.24672,4.24672 0 0 1 -1.93478,-6.06413l38.33707,-64.19208l11.75766,-54.0852c-3.69795,-23.455 12.155,-58.326 12.31575,-58.67614l0.07855,-0.17044l43.66751,-17.06765l0.219,0.2681c17.22117,56.51377 27.715,117.3322 19.96672,208.5678a4.27417,4.27417 0 0 1 -4.23182,3.88976z"/>
  <path id="svg_52" fill="#3f3d56" d="m92.24326,443.47354l-0.20339,-0.42749c-0.09719,-0.20454 -9.807,-20.68365 -17.292,-42.57146a32.28512,32.28512 0 0 1 2.23858,-25.87344a32.6374,32.6374 0 0 1 20.81263,-16.00426l0,0a32.677,32.677 0 0 1 37.92775,19.56974c5.93722,14.84708 4.045,30.69452 2.26429,43.15723l-0.03547,0.24967l-0.22711,0.10872l-45.48528,21.79129z"/>
  <path id="svg_53" fill="#2f2e41" d="m129.25961,313.59312l-36.79386,0l0,-16.03835c8.07584,-3.20838 15.97847,-5.93693 20.75551,0a16.03844,16.03844 0 0 1 16.03835,16.03833l0,0.00002z"/>
  <path id="svg_54" fill="#2f2e41" d="m90.42872,294.72447c-21.99607,0 -28.15279,27.57121 -28.15279,43.12552c0,8.67446 3.923,11.777 10.08753,12.8268l2.17708,-11.611l5.09905,12.11064c1.73162,0.00864 3.55077,-0.02488 5.43671,-0.05989l1.72886,-3.55986l3.85527,3.496c15.44087,0.023 27.92061,2.27382 27.92061,-13.20269c0,-15.55431 -5.39939,-43.12552 -28.15232,-43.12552z"/>
  <path id="svg_55" fill="#ccc" d="m193,661.47278l-192,0a1,1 0 1 1 0,-2l192,0a1,1 0 0 1 0,2z"/>
  <path id="svg_56" fill="#fff" d="m196.61024,332.47278l-43,0a9.51081,9.51081 0 0 1 -9.5,-9.5l0,-43a9.51081,9.51081 0 0 1 9.5,-9.5l43,0a9.51081,9.51081 0 0 1 9.5,9.5l0,43a9.51081,9.51081 0 0 1 -9.5,9.5z"/>
  <path id="svg_57" fill="#3f3d56" d="m196.61024,332.47278l-43,0a9.51081,9.51081 0 0 1 -9.5,-9.5l0,-43a9.51081,9.51081 0 0 1 9.5,-9.5l43,0a9.51081,9.51081 0 0 1 9.5,9.5l0,43a9.51081,9.51081 0 0 1 -9.5,9.5zm-43,-60a7.50836,7.50836 0 0 0 -7.5,7.5l0,43a7.50836,7.50836 0 0 0 7.5,7.5l43,0a7.50836,7.50836 0 0 0 7.5,-7.5l0,-43a7.50836,7.50836 0 0 0 -7.5,-7.5l-43,0z"/>
  <path id="svg_58" fill="#4285f4" d="m189.11024,314.97278l-28,0a3.00328,3.00328 0 0 1 -3,-3l0,-21a3.00328,3.00328 0 0 1 3,-3l7.88232,0a2.98117,2.98117 0 0 1 2.55518,1.42724l2.19824,3.57276l15.36426,0a3.00328,3.00328 0 0 1 3,3l0,16a3.00328,3.00328 0 0 1 -3,3z"/>
  <path id="svg_59" fill="#a0616a" d="m188.19947,325.58193q0.20986,0.38415 0.38766,0.79029a10.38021,10.38021 0 0 1 -6.39269,14.10854a9.72022,9.72022 0 0 1 -0.98807,0.24953l-19.09943,49.40482a8.06134,8.06134 0 0 1 -8.16324,5.09887l-0.096,-0.01816l-41.39664,-12.46211a8.89853,8.89853 0 1 1 5.28606,-16.99313l29.29033,9.40382l22.6764,-40.20175a9.87622,9.87622 0 0 1 -0.51127,-1.28942a10.38005,10.38005 0 0 1 19.0069,-8.0913l-0.00001,0z"/>
 </g>
</svg>