<svg width="927" height="682" xmlns="http://www.w3.org/2000/svg" data-name="Layer 1">

 <g>
  <title>Layer 1</title>
  <circle id="svg_1" fill="#ffb8b8" r="24.56103" cy="254.87249" cx="150.53395"/>
  <polygon id="svg_2" fill="#ffb8b8" points="67.54299771785736,549.1970262744144 73.76199948787689,559.7630052783206 117.47399747371674,540.8029833056644 108.29499661922455,525.2100267626956 67.54299771785736,549.1970262744144 "/>
  <path id="svg_3" fill="#2f2e41" d="m69.40648,544.47217l12.24734,20.80688l0.0005,0.00084a15.38605,15.38605 0 0 1 -5.4555,21.06458l-0.43091,0.25362l-20.05239,-34.06705l13.69096,-8.05887z"/>
  <polygon id="svg_4" fill="#ffb8b8" points="139.60000455379486,587.2600145556644 151.8599990606308,587.2589769580081 157.69199979305267,539.9710130908206 139.59800565242767,539.9719896533206 139.60000455379486,587.2600145556644 "/>
  <path id="svg_5" fill="#2f2e41" d="m136.47305,583.25713l24.14379,-0.001l0.001,0a15.38605,15.38605 0 0 1 15.38648,15.38623l0,0.5l-39.53052,0.00146l-0.00075,-15.88669z"/>
  <path id="svg_6" fill="#2f2e41" d="m90.31145,558.6097a4.49318,4.49318 0 0 1 -3.624,-1.833l-11.82373,-16.05859a4.49961,4.49961 0 0 1 1.12451,-6.41016l52.614,-35.1416l-31.74659,-83.47461l67.88918,5.60253l2.28662,71.7334a36.04579,36.04579 0 0 1 -18.04518,32.4238l-56.42652,32.55371a4.486,4.486 0 0 1 -2.24829,0.60452z"/>
  <path id="svg_7" fill="#2f2e41" d="m139.97015,577.65947a4.49986,4.49986 0 0 1 -4.48877,-4.33984l-2.488,-69.88184l30.80835,-1.623l-2.45313,70.38379a4.48729,4.48729 0 0 1 -4.1997,4.333l-16.87281,1.11817c-0.10233,0.00682 -0.20438,0.00972 -0.30594,0.00972z"/>
  <path id="svg_8" fill="#4285f4" d="m172.60174,435.17122c-7.83838,0 -35.21656,-8.8164 -44.72119,-11.959c-1.42188,1.13769 -9.23316,6.97851 -18.35108,5.91113c-5.626,-0.66016 -10.57886,-3.84473 -14.72095,-9.46582c-9.147,-12.41406 2.15064,-65.65137 13.239,-108.126a34.26782,34.26782 0 0 1 40.52856,-24.87988l0,0a34.57137,34.57137 0 0 1 26.08765,25.37793c2.08765,8.49805 0.29175,18.49414 -1.01953,25.79395c-0.61646,3.43164 -1.10352,6.14257 -0.937,7.47461c0.64355,5.14843 4.21875,85.8916 1.91992,89.33984c-0.24487,0.36723 -0.95287,0.53324 -2.02538,0.53324z"/>
  <path id="svg_9" fill="#ffb8b8" d="m143.92682,435.31424a10.74269,10.74269 0 0 0 0.9416,-16.44569l0.48534,-97.84356l-23.04478,3.8374l6.76925,94.97037a10.80091,10.80091 0 0 0 14.84859,15.48148z"/>
  <path id="svg_10" fill="#4285f4" d="m149.25682,383.86068l-24.82183,0a4.51352,4.51352 0 0 1 -4.5,-4.459l-0.60938,-67.292a17.603,17.603 0 1 1 35.20411,0.043l-0.7732,67.25979a4.51547,4.51547 0 0 1 -4.4997,4.44821z"/>
  <path id="svg_11" fill="#2f2e41" d="m144.28008,279.3312c-11.24529,0.02059 -21.85416,-8.868 -23.80286,-19.94323a28.67148,28.67148 0 0 1 0.91927,-13.01372a34.95394,34.95394 0 0 1 47.93533,-21.95278c3.00831,1.36131 5.97145,3.31645 7.3489,6.31741s0.51535,7.19528 -2.49791,8.54561c-1.96916,0.88242 -4.44023,0.4491 -6.18719,1.71573c-2.50928,1.81937 -1.86334,5.69129 -0.74286,8.58112s2.38776,6.38691 0.50947,8.85239c-1.75023,2.29739 -5.24872,2.22609 -8.00436,1.36137s-5.47557,-2.31277 -8.34864,-2.01822c-4.1904,0.42961 -7.20172,4.59773 -7.7591,8.77306s0.75474,8.34892 2.05018,12.35714l-1.42023,0.42412z"/>
  <path id="svg_12" fill="#ccc" d="m259,600.08494l-258,0a1,1 0 1 1 0,-2l258,0a1,1 0 0 1 0,2z"/>
  <path id="svg_13" fill="#f2f2f2" d="m910.12164,434.54785l-640.8385,0a16.51868,16.51868 0 0 1 -16.5,-16.5l0,-395.15381a12.10185,12.10185 0 0 1 12.08789,-12.08838l649.4535,0a12.31111,12.31111 0 0 1 12.29711,12.29736l0,394.94483a16.51867,16.51867 0 0 1 -16.5,16.5z"/>
  <path id="svg_14" fill="#fff" d="m889.40182,413.71553l-597.24473,0c-8.755,0 -15.87757,-6.66993 -15.87757,-14.86817l0,-344.105c0,-6.08008 5.278,-11.02685 11.76563,-11.02685l605.27367,0c6.59521,0 11.96069,5.02832 11.96069,11.20849l0,343.92336c0.00001,8.19824 -7.12279,14.86817 -15.87769,14.86817z"/>
  <path id="svg_15" fill="#3f3d56" d="m926.39191,24.95019l-673.84033,0l0,-8.40039a16.57376,16.57376 0 0 1 16.56,-16.5498l640.72024,0a16.57368,16.57368 0 0 1 16.56006,16.5498l0.00003,8.40039z"/>
  <circle id="svg_16" fill="#fff" r="4.28342" cy="12.5" cx="282.64694"/>
  <circle id="svg_17" fill="#fff" r="4.28342" cy="12.5" cx="298.90575"/>
  <circle id="svg_18" fill="#fff" r="4.28342" cy="12.5" cx="315.16455"/>
  <path id="svg_19" fill="#ccc" d="m576.61049,118.95447l-116.80814,0a6.56614,6.56614 0 0 1 0,-13.13228l116.80814,0a6.56614,6.56614 0 1 1 0,13.13228z"/>
  <path id="svg_20" fill="#ccc" d="m721.75669,118.95447l-116.80813,0a6.56614,6.56614 0 0 1 0,-13.13228l116.80813,0a6.56614,6.56614 0 1 1 0,13.13228z"/>
  <path id="svg_21" fill="#ccc" d="m721.75669,143.83666l-203.20468,0a6.56613,6.56613 0 1 1 0,-13.13227l203.20468,0a6.56613,6.56613 0 1 1 0,13.13227z"/>
  <path id="svg_22" fill="#ccc" d="m576.61049,93.72666l-116.80814,0a6.56614,6.56614 0 0 1 0,-13.13227l116.80814,0a6.56614,6.56614 0 1 1 0,13.13227z"/>
  <path id="svg_23" fill="#ccc" d="m640.88952,94.07225l-33.17627,0a6.56614,6.56614 0 0 1 0,-13.13228l33.17627,0a6.56614,6.56614 0 1 1 0,13.13228z"/>
  <path id="svg_24" fill="#ccc" d="m492.97863,143.83666l-33.17628,0a6.56614,6.56614 0 0 1 0,-13.13227l33.17628,0a6.56614,6.56614 0 1 1 0,13.13227z"/>
  <path id="svg_25" fill="#ccc" d="m576.61049,351.95447l-116.80814,0a6.56614,6.56614 0 0 1 0,-13.13228l116.80814,0a6.56614,6.56614 0 1 1 0,13.13228z"/>
  <path id="svg_26" fill="#ccc" d="m721.75669,351.95447l-116.80813,0a6.56614,6.56614 0 0 1 0,-13.13228l116.80813,0a6.56614,6.56614 0 1 1 0,13.13228z"/>
  <path id="svg_27" fill="#ccc" d="m721.75669,376.83666l-203.20468,0a6.56613,6.56613 0 1 1 0,-13.13227l203.20468,0a6.56614,6.56614 0 1 1 0,13.13227z"/>
  <path id="svg_28" fill="#ccc" d="m576.61049,326.72666l-116.80814,0a6.56613,6.56613 0 0 1 0,-13.13227l116.80814,0a6.56613,6.56613 0 1 1 0,13.13227z"/>
  <path id="svg_29" fill="#ccc" d="m640.88952,327.07225l-33.17627,0a6.56614,6.56614 0 0 1 0,-13.13228l33.17627,0a6.56614,6.56614 0 0 1 0,13.13228z"/>
  <path id="svg_30" fill="#ccc" d="m492.97863,376.83666l-33.17628,0a6.56613,6.56613 0 0 1 0,-13.13227l33.17628,0a6.56614,6.56614 0 1 1 0,13.13227z"/>
  <path id="svg_31" fill="#4285f4" d="m546.10382,281.46171a9.39692,9.39692 0 0 1 -6.62352,-2.7101l-43.90868,-43.35929a9.1516,9.1516 0 0 1 0,-13.02336l43.73124,-43.18435a9.70171,9.70171 0 0 1 13.64354,0.043l0,0a9.689,9.689 0 0 1 0.00019,13.68669l-32.49607,32.49664a5.41338,5.41338 0 0 0 0,7.64652l32.31978,32.32016a9.418,9.418 0 0 1 -6.66648,16.08412l0,-0.00003z"/>
  <path id="svg_32" fill="#4285f4" d="m616.06941,281.46171a9.418,9.418 0 0 1 -6.66648,-16.08412l32.31978,-32.32012a5.41338,5.41338 0 0 0 0,-7.64652l-32.49607,-32.49668a9.67776,9.67776 0 0 1 0.00019,-13.68669l0,0a9.70169,9.70169 0 0 1 13.64353,-0.043l43.73124,43.18435a9.15157,9.15157 0 0 1 0,13.02336l-43.90867,43.35929a9.39891,9.39891 0 0 1 -6.62352,2.71013z"/>
 </g>
</svg>