<svg width="572" height="336" viewBox="0 0 572 336" fill="none" xmlns="http://www.w3.org/2000/svg">
<path d="M571.24 335.925H0.759552C0.558488 335.924 0.365862 335.833 0.223894 335.671C0.081925 335.508 0.00219727 335.289 0.00219727 335.06C0.00219727 334.831 0.081925 334.611 0.223894 334.449C0.365862 334.286 0.558488 334.195 0.759552 334.194H571.24C571.441 334.195 571.634 334.286 571.776 334.449C571.918 334.611 571.998 334.831 571.998 335.06C571.998 335.289 571.918 335.508 571.776 335.671C571.634 335.833 571.441 335.924 571.24 335.925Z" fill="#3F3D56"/>
<path d="M178.841 41.7552C181.119 41.7552 182.966 39.6508 182.966 37.0548C182.966 34.4588 181.119 32.3544 178.841 32.3544C176.562 32.3544 174.715 34.4588 174.715 37.0548C174.715 39.6508 176.562 41.7552 178.841 41.7552Z" fill="#F2F2F2"/>
<path d="M162.4 41.7552C164.678 41.7552 166.525 39.6508 166.525 37.0548C166.525 34.4588 164.678 32.3544 162.4 32.3544C160.121 32.3544 158.274 34.4588 158.274 37.0548C158.274 39.6508 160.121 41.7552 162.4 41.7552Z" fill="#F2F2F2"/>
<path d="M145.959 41.7552C148.237 41.7552 150.084 39.6508 150.084 37.0548C150.084 34.4588 148.237 32.3544 145.959 32.3544C143.68 32.3544 141.833 34.4588 141.833 37.0548C141.833 39.6508 143.68 41.7552 145.959 41.7552Z" fill="#F2F2F2"/>
<path d="M129.517 41.7552C131.796 41.7552 133.643 39.6508 133.643 37.0548C133.643 34.4588 131.796 32.3544 129.517 32.3544C127.239 32.3544 125.392 34.4588 125.392 37.0548C125.392 39.6508 127.239 41.7552 129.517 41.7552Z" fill="#F2F2F2"/>
<path d="M178.841 61.38C181.119 61.38 182.966 59.2755 182.966 56.6796C182.966 54.0836 181.119 51.9791 178.841 51.9791C176.562 51.9791 174.715 54.0836 174.715 56.6796C174.715 59.2755 176.562 61.38 178.841 61.38Z" fill="#F2F2F2"/>
<path d="M162.4 61.38C164.678 61.38 166.525 59.2755 166.525 56.6796C166.525 54.0836 164.678 51.9791 162.4 51.9791C160.121 51.9791 158.274 54.0836 158.274 56.6796C158.274 59.2755 160.121 61.38 162.4 61.38Z" fill="#F2F2F2"/>
<path d="M145.959 61.38C148.237 61.38 150.084 59.2755 150.084 56.6796C150.084 54.0836 148.237 51.9791 145.959 51.9791C143.68 51.9791 141.833 54.0836 141.833 56.6796C141.833 59.2755 143.68 61.38 145.959 61.38Z" fill="#F2F2F2"/>
<path d="M129.517 61.38C131.796 61.38 133.643 59.2755 133.643 56.6796C133.643 54.0836 131.796 51.9791 129.517 51.9791C127.239 51.9791 125.392 54.0836 125.392 56.6796C125.392 59.2755 127.239 61.38 129.517 61.38Z" fill="#F2F2F2"/>
<path d="M178.841 81.0049C181.119 81.0049 182.966 78.9004 182.966 76.3044C182.966 73.7085 181.119 71.604 178.841 71.604C176.562 71.604 174.715 73.7085 174.715 76.3044C174.715 78.9004 176.562 81.0049 178.841 81.0049Z" fill="#F2F2F2"/>
<path d="M162.4 81.0049C164.678 81.0049 166.525 78.9004 166.525 76.3044C166.525 73.7085 164.678 71.604 162.4 71.604C160.121 71.604 158.274 73.7085 158.274 76.3044C158.274 78.9004 160.121 81.0049 162.4 81.0049Z" fill="#F2F2F2"/>
<path d="M145.959 81.0049C148.237 81.0049 150.084 78.9004 150.084 76.3044C150.084 73.7085 148.237 71.604 145.959 71.604C143.68 71.604 141.833 73.7085 141.833 76.3044C141.833 78.9004 143.68 81.0049 145.959 81.0049Z" fill="#F2F2F2"/>
<path d="M129.517 81.0049C131.796 81.0049 133.643 78.9004 133.643 76.3044C133.643 73.7085 131.796 71.604 129.517 71.604C127.239 71.604 125.392 73.7085 125.392 76.3044C125.392 78.9004 127.239 81.0049 129.517 81.0049Z" fill="#F2F2F2"/>
<path d="M178.841 100.63C181.119 100.63 182.966 98.5251 182.966 95.9292C182.966 93.3332 181.119 91.2288 178.841 91.2288C176.562 91.2288 174.715 93.3332 174.715 95.9292C174.715 98.5251 176.562 100.63 178.841 100.63Z" fill="#F2F2F2"/>
<path d="M162.4 100.63C164.678 100.63 166.525 98.5251 166.525 95.9292C166.525 93.3332 164.678 91.2288 162.4 91.2288C160.121 91.2288 158.274 93.3332 158.274 95.9292C158.274 98.5251 160.121 100.63 162.4 100.63Z" fill="#F2F2F2"/>
<path d="M145.959 100.63C148.237 100.63 150.084 98.5251 150.084 95.9292C150.084 93.3332 148.237 91.2288 145.959 91.2288C143.68 91.2288 141.833 93.3332 141.833 95.9292C141.833 98.5251 143.68 100.63 145.959 100.63Z" fill="#F2F2F2"/>
<path d="M129.517 100.63C131.796 100.63 133.643 98.5251 133.643 95.9292C133.643 93.3332 131.796 91.2288 129.517 91.2288C127.239 91.2288 125.392 93.3332 125.392 95.9292C125.392 98.5251 127.239 100.63 129.517 100.63Z" fill="#F2F2F2"/>
<path d="M178.841 120.254C181.119 120.254 182.966 118.15 182.966 115.554C182.966 112.958 181.119 110.854 178.841 110.854C176.562 110.854 174.715 112.958 174.715 115.554C174.715 118.15 176.562 120.254 178.841 120.254Z" fill="#F2F2F2"/>
<path d="M162.4 120.254C164.678 120.254 166.525 118.15 166.525 115.554C166.525 112.958 164.678 110.854 162.4 110.854C160.121 110.854 158.274 112.958 158.274 115.554C158.274 118.15 160.121 120.254 162.4 120.254Z" fill="#F2F2F2"/>
<path d="M145.959 120.254C148.237 120.254 150.084 118.15 150.084 115.554C150.084 112.958 148.237 110.854 145.959 110.854C143.68 110.854 141.833 112.958 141.833 115.554C141.833 118.15 143.68 120.254 145.959 120.254Z" fill="#F2F2F2"/>
<path d="M129.517 120.254C131.796 120.254 133.643 118.15 133.643 115.554C133.643 112.958 131.796 110.854 129.517 110.854C127.239 110.854 125.392 112.958 125.392 115.554C125.392 118.15 127.239 120.254 129.517 120.254Z" fill="#F2F2F2"/>
<path d="M178.841 139.879C181.119 139.879 182.966 137.775 182.966 135.179C182.966 132.583 181.119 130.478 178.841 130.478C176.562 130.478 174.715 132.583 174.715 135.179C174.715 137.775 176.562 139.879 178.841 139.879Z" fill="#F2F2F2"/>
<path d="M162.4 139.879C164.678 139.879 166.525 137.775 166.525 135.179C166.525 132.583 164.678 130.478 162.4 130.478C160.121 130.478 158.274 132.583 158.274 135.179C158.274 137.775 160.121 139.879 162.4 139.879Z" fill="#F2F2F2"/>
<path d="M145.959 139.879C148.237 139.879 150.084 137.775 150.084 135.179C150.084 132.583 148.237 130.478 145.959 130.478C143.68 130.478 141.833 132.583 141.833 135.179C141.833 137.775 143.68 139.879 145.959 139.879Z" fill="#F2F2F2"/>
<path d="M129.517 139.879C131.796 139.879 133.643 137.775 133.643 135.179C133.643 132.583 131.796 130.478 129.517 130.478C127.239 130.478 125.392 132.583 125.392 135.179C125.392 137.775 127.239 139.879 129.517 139.879Z" fill="#F2F2F2"/>
<path d="M142.591 263.409V264.862C142.593 267.271 143.434 269.581 144.929 271.284C146.424 272.988 148.451 273.946 150.565 273.948H207.977C210.092 273.947 212.12 272.989 213.615 271.286C215.11 269.582 215.95 267.272 215.951 264.862V263.409C215.955 261.282 215.3 259.223 214.101 257.594C213.702 257.053 213.251 256.565 212.755 256.14C212.755 256.14 181.191 255.326 181.191 254.323H150.565C148.451 254.326 146.425 255.285 144.93 256.988C143.435 258.691 142.594 261 142.591 263.409V263.409Z" fill="#CCCCCC"/>
<path d="M183.879 273.587H175.586V334.642H183.879V273.587Z" fill="#CCCCCC"/>
<path d="M207.482 334.31C207.482 335.331 194.915 334.705 179.414 334.705C163.912 334.705 151.346 335.331 151.346 334.31C151.346 333.289 163.912 325.193 179.414 325.193C194.915 325.193 207.482 333.289 207.482 334.31Z" fill="#CCCCCC"/>
<path d="M196.081 262.176C196.679 261.26 197.094 260.207 197.297 259.089C197.5 257.971 197.485 256.816 197.253 255.705C197.022 254.594 196.579 253.555 195.957 252.661C195.335 251.766 194.548 251.037 193.652 250.527L176.076 182.287L162.692 189.755L184.177 254.485C183.524 256.257 183.464 258.24 184.008 260.059C184.552 261.878 185.664 263.406 187.131 264.354C188.598 265.302 190.32 265.604 191.969 265.203C193.619 264.801 195.081 263.724 196.081 262.176L196.081 262.176Z" fill="#A0616A"/>
<path d="M180.058 193.683L165.078 198.303C164.651 198.435 164.205 198.46 163.77 198.377C163.334 198.294 162.919 198.106 162.554 197.824C162.188 197.542 161.88 197.174 161.65 196.744C161.421 196.314 161.275 195.833 161.223 195.334L159.413 177.826C158.835 175.337 159.147 172.689 160.28 170.462C161.413 168.235 163.274 166.611 165.457 165.946C167.639 165.281 169.964 165.628 171.922 166.913C173.879 168.198 175.31 170.315 175.9 172.799L182.071 188.903C182.248 189.364 182.335 189.863 182.327 190.367C182.319 190.87 182.216 191.365 182.025 191.818C181.834 192.272 181.559 192.673 181.22 192.995C180.88 193.317 180.484 193.551 180.058 193.683H180.058Z" fill="#4285F4"/>
<path d="M199.996 327.154L207.816 327.153L211.537 304.042H199.994L199.996 327.154Z" fill="#A0616A"/>
<path d="M198.001 324.244L213.402 324.244H213.403C214.692 324.244 215.968 324.533 217.159 325.095C218.35 325.657 219.432 326.481 220.343 327.519C221.255 328.558 221.978 329.79 222.471 331.147C222.964 332.504 223.218 333.958 223.218 335.427V335.79L198.001 335.792L198.001 324.244Z" fill="#2F2E41"/>
<path d="M209.073 314.761C208.982 314.761 208.891 314.756 208.799 314.746L197.976 313.848C197.538 313.801 197.116 313.641 196.741 313.379C196.366 313.118 196.049 312.761 195.814 312.338C195.579 311.915 195.433 311.435 195.387 310.937C195.34 310.439 195.394 309.936 195.546 309.465L210.031 272.386C210.134 272.055 210.176 271.704 210.155 271.353C210.133 271.003 210.048 270.662 209.905 270.351C209.763 270.037 209.563 269.76 209.32 269.54C209.077 269.319 208.796 269.16 208.495 269.072C201.684 267.044 184.208 261.642 169.08 255.322C162.599 252.614 158.517 248.701 156.948 243.691C154.879 237.086 157.94 231.063 158.071 230.81L158.174 230.612L172.409 232.086L187.84 233.582L221.658 254.244C224.492 255.99 226.645 258.888 227.687 262.362C228.73 265.835 228.586 269.628 227.284 272.985L211.693 312.822C211.467 313.399 211.1 313.889 210.635 314.233C210.17 314.577 209.628 314.76 209.073 314.761V314.761Z" fill="#2F2E41"/>
<path d="M174.884 158.726C183.537 158.726 190.552 150.734 190.552 140.874C190.552 131.015 183.537 123.022 174.884 123.022C166.231 123.022 159.216 131.015 159.216 140.874C159.216 150.734 166.231 158.726 174.884 158.726Z" fill="#A0616A"/>
<path d="M195.53 326.427L203.351 326.426L207.072 303.315H195.529L195.53 326.427Z" fill="#A0616A"/>
<path d="M193.535 323.518L208.937 323.517H208.938C210.226 323.517 211.503 323.806 212.694 324.368C213.885 324.93 214.967 325.754 215.878 326.792C216.789 327.831 217.512 329.064 218.006 330.42C218.499 331.777 218.753 333.232 218.753 334.7V335.064L193.536 335.065L193.535 323.518Z" fill="#2F2E41"/>
<path d="M204.608 316.941C204.517 316.941 204.425 316.936 204.334 316.926L193.51 316.028C193.073 315.982 192.65 315.822 192.275 315.56C191.901 315.298 191.584 314.942 191.349 314.518C191.114 314.095 190.968 313.616 190.921 313.118C190.875 312.62 190.929 312.116 191.08 311.646L205.565 274.566C205.669 274.236 205.711 273.884 205.689 273.534C205.668 273.184 205.583 272.843 205.44 272.532C205.297 272.217 205.098 271.941 204.855 271.72C204.612 271.5 204.33 271.34 204.029 271.253C197.218 269.224 179.743 263.822 164.615 257.502C158.134 254.794 154.052 250.881 152.483 245.871C150.414 239.267 153.475 233.243 153.606 232.99L153.708 232.792L167.943 234.267L183.375 235.762L217.193 256.425C220.027 258.171 222.179 261.069 223.222 264.542C224.264 268.015 224.12 271.808 222.818 275.166L207.227 315.003C207.002 315.579 206.634 316.07 206.169 316.414C205.705 316.758 205.162 316.941 204.608 316.941V316.941Z" fill="#2F2E41"/>
<path d="M179.716 168.849L163.13 162.307C163.13 162.307 152.718 171.422 157.72 194.033C160.331 205.701 159.571 218.018 155.551 229.155C155.067 230.532 154.509 231.875 153.88 233.175C153.88 233.175 172.38 258.615 189.603 239.717L182.905 203.011C182.905 203.011 193.431 178.662 179.716 168.849Z" fill="#2F2E41"/>
<path d="M176.829 159.333C174.599 155.53 172.839 150.257 175.294 146.638C177.718 143.067 182.498 143.593 186.209 142.012C191.379 139.811 194.377 132.891 193.442 126.694C192.507 120.496 188.141 115.359 182.94 113.257C177.738 111.155 171.873 111.838 166.779 114.259C160.509 117.239 155.13 123.003 152.875 130.305C150.619 137.607 151.825 146.374 156.504 151.987C161.521 158.004 169.393 159.607 176.677 159.51" fill="#2F2E41"/>
<path d="M162.255 126.892C159.445 129.499 155.158 128.341 152.142 126.054C149.125 123.766 146.678 120.509 143.414 118.716C137.661 115.554 130.705 117.656 125.105 121.158C119.506 124.66 114.542 129.499 108.627 132.247C102.712 134.995 95.1646 135.131 90.6858 129.942C89.5837 133.58 89.4936 137.517 90.4278 141.216C91.3621 144.915 93.2752 148.196 95.9062 150.61C98.5371 153.024 101.758 154.455 105.129 154.707C108.5 154.959 111.857 154.019 114.742 152.017C121.222 147.519 124.802 138.088 132.071 135.605C136.093 134.232 140.413 135.338 144.478 136.536C148.543 137.735 152.782 139.03 156.885 138.01C160.987 136.989 164.825 132.789 164.303 128.041L162.255 126.892Z" fill="#2F2E41"/>
<path d="M213.258 295.104C211.599 282.826 211.599 270.331 213.258 258.053C213.363 257.322 213.693 256.658 214.188 256.178C214.683 255.698 215.311 255.434 215.961 255.432H241.396C241.808 255.431 242.215 255.536 242.586 255.741C242.957 255.946 243.282 256.244 243.537 256.614C243.796 256.989 243.978 257.426 244.067 257.893C244.156 258.359 244.151 258.843 244.052 259.307C241.672 270.662 241.672 282.495 244.051 293.85C244.151 294.314 244.156 294.798 244.067 295.264C243.978 295.731 243.796 296.168 243.537 296.543C243.282 296.912 242.957 297.211 242.586 297.416C242.215 297.621 241.808 297.726 241.396 297.725H215.961C215.311 297.723 214.683 297.459 214.188 296.979C213.693 296.499 213.363 295.835 213.258 295.104V295.104Z" fill="#4285F4"/>
<path d="M233.569 273.368H220.222C219.714 273.368 219.228 273.138 218.869 272.729C218.51 272.32 218.308 271.766 218.308 271.188V270.336C218.308 269.758 218.51 269.203 218.869 268.795C219.228 268.386 219.714 268.156 220.222 268.155H233.569C234.076 268.156 234.563 268.386 234.922 268.795C235.28 269.203 235.482 269.758 235.483 270.336V271.188C235.482 271.766 235.28 272.32 234.922 272.729C234.563 273.138 234.076 273.368 233.569 273.368Z" fill="white"/>
<path d="M233.569 282.341H220.222C219.714 282.34 219.228 282.11 218.869 281.701C218.51 281.293 218.308 280.738 218.308 280.16V279.308C218.308 278.73 218.51 278.176 218.869 277.767C219.228 277.358 219.714 277.128 220.222 277.128H233.569C234.076 277.128 234.563 277.358 234.922 277.767C235.28 278.176 235.482 278.73 235.483 279.308V280.16C235.482 280.738 235.28 281.293 234.922 281.701C234.563 282.11 234.076 282.34 233.569 282.341Z" fill="white"/>
<path d="M219.947 258.905C220.326 257.849 220.497 256.71 220.448 255.57C220.399 254.43 220.131 253.316 219.663 252.306C219.196 251.297 218.539 250.417 217.741 249.727C216.942 249.038 216.02 248.557 215.041 248.317L183.059 187.245L171.737 198.287L206.734 254.847C206.49 256.749 206.867 258.686 207.793 260.293C208.719 261.899 210.13 263.063 211.759 263.563C213.387 264.063 215.12 263.865 216.629 263.007C218.139 262.148 219.319 260.689 219.947 258.905L219.947 258.905Z" fill="#A0616A"/>
<path d="M189.413 197.146L175.922 205.884C175.538 206.133 175.111 206.284 174.672 206.328C174.232 206.372 173.789 206.307 173.373 206.139C172.957 205.97 172.578 205.701 172.261 205.35C171.944 204.999 171.698 204.575 171.538 204.106L165.946 187.669C164.841 185.424 164.563 182.771 165.171 180.292C165.78 177.813 167.227 175.711 169.194 174.445C171.161 173.18 173.488 172.855 175.666 173.542C177.843 174.228 179.692 175.871 180.808 178.108L190.315 191.945C190.587 192.341 190.781 192.8 190.884 193.289C190.986 193.778 190.995 194.287 190.909 194.781C190.824 195.274 190.646 195.741 190.388 196.149C190.13 196.557 189.797 196.897 189.413 197.146V197.146Z" fill="#2F2E41"/>
<path d="M332.969 218.598H73.9769C72.8772 218.598 71.8225 219.096 71.0449 219.982C70.2673 220.868 69.8304 222.07 69.8304 223.323C69.8304 224.576 70.2673 225.778 71.0449 226.664C71.8225 227.55 72.8772 228.047 73.9769 228.047H81.3129V330.896C81.3129 332.149 81.7497 333.351 82.5273 334.237C83.3049 335.123 84.3596 335.62 85.4593 335.62C86.559 335.62 87.6137 335.123 88.3913 334.237C89.1689 333.351 89.6057 332.149 89.6057 330.896V237.126L136.091 333.126C136.642 334.208 137.548 334.998 138.609 335.32C139.67 335.643 140.8 335.473 141.751 334.847C142.702 334.221 143.397 333.191 143.682 331.983C143.967 330.774 143.82 329.486 143.273 328.401L94.6794 228.047H316.702V228.109L268.139 328.401C267.589 329.487 267.44 330.776 267.725 331.986C268.009 333.197 268.704 334.228 269.656 334.855C270.609 335.482 271.74 335.651 272.803 335.327C273.865 335.003 274.771 334.211 275.32 333.126L316.702 247.665V330.896C316.702 332.149 317.139 333.351 317.917 334.237C318.694 335.123 319.749 335.62 320.849 335.62C321.949 335.62 323.003 335.123 323.781 334.237C324.558 333.351 324.995 332.149 324.995 330.896V230.539L326.202 228.047H332.969C334.069 228.047 335.124 227.55 335.901 226.664C336.679 225.778 337.116 224.576 337.116 223.323C337.116 222.07 336.679 220.868 335.901 219.982C335.124 219.096 334.069 218.598 332.969 218.598V218.598Z" fill="#3F3D56"/>
<path d="M225.8 215.691H175.405C174.172 215.691 173.172 216.83 173.172 218.235C173.172 219.64 174.172 220.779 175.405 220.779H225.8C227.033 220.779 228.033 219.64 228.033 218.235C228.033 216.83 227.033 215.691 225.8 215.691Z" fill="#CCCCCC"/>
<path d="M259.609 220.779H202.835C201.736 220.778 200.682 220.279 199.905 219.394C199.127 218.508 198.69 217.307 198.689 216.055V180.439C198.69 179.187 199.127 177.986 199.905 177.1C200.682 176.214 201.736 175.716 202.835 175.715H259.609C260.709 175.716 261.763 176.214 262.54 177.1C263.317 177.986 263.755 179.187 263.756 180.439V216.055C263.755 217.307 263.317 218.508 262.54 219.394C261.763 220.279 260.709 220.778 259.609 220.779V220.779Z" fill="#CCCCCC"/>
<path d="M231.222 202.608C233.336 202.608 235.05 200.655 235.05 198.247C235.05 195.838 233.336 193.886 231.222 193.886C229.108 193.886 227.395 195.838 227.395 198.247C227.395 200.655 229.108 202.608 231.222 202.608Z" fill="white"/>
<path d="M302.937 133.028V5.46691C302.938 4.0175 303.444 2.62793 304.344 1.60304C305.243 0.578151 306.463 0.00164866 307.735 0H396.231C397.503 0.00164866 398.723 0.578151 399.622 1.60304C400.522 2.62793 401.028 4.0175 401.029 5.46691V133.028C401.028 134.478 400.522 135.867 399.622 136.892C398.723 137.917 397.503 138.494 396.231 138.495H307.735C306.463 138.494 305.243 137.917 304.344 136.892C303.444 135.867 302.938 134.478 302.937 133.028V133.028ZM307.735 1.21487C306.745 1.21614 305.797 1.66453 305.097 2.46166C304.398 3.2588 304.004 4.33959 304.003 5.46691V133.028C304.004 134.156 304.398 135.236 305.097 136.034C305.797 136.831 306.745 137.279 307.735 137.28H396.231C397.221 137.279 398.169 136.831 398.869 136.034C399.569 135.236 399.962 134.156 399.963 133.028V5.46691C399.962 4.33959 399.569 3.2588 398.869 2.46166C398.169 1.66453 397.221 1.21614 396.231 1.21487H307.735Z" fill="#E6E6E6"/>
<path d="M356.946 58.5821V32.3897C356.946 31.665 357.199 30.9702 357.649 30.4577C358.099 29.9453 358.709 29.6571 359.345 29.6562H378.825C379.461 29.6571 380.07 29.9453 380.52 30.4577C380.97 30.9702 381.223 31.665 381.224 32.3897V58.5821C381.223 59.3068 380.97 60.0016 380.52 60.514C380.07 61.0265 379.461 61.3147 378.825 61.3155H359.345C358.709 61.3147 358.099 61.0265 357.649 60.514C357.199 60.0016 356.946 59.3068 356.946 58.5821V58.5821Z" fill="#4285F4"/>
<path d="M319.095 70.7308V44.5384C319.095 43.8137 319.348 43.1189 319.798 42.6064C320.248 42.094 320.858 41.8057 321.494 41.8049H340.974C341.61 41.8057 342.219 42.094 342.669 42.6064C343.119 43.1189 343.372 43.8137 343.373 44.5384V70.7308C343.372 71.4555 343.119 72.1503 342.669 72.6627C342.219 73.1752 341.61 73.4634 340.974 73.4642H321.494C320.858 73.4634 320.248 73.1752 319.798 72.6627C319.348 72.1503 319.095 71.4555 319.095 70.7308V70.7308Z" fill="#CCCCCC"/>
<path d="M349.482 107.784V81.5919C349.483 80.8671 349.736 80.1724 350.186 79.6599C350.635 79.1475 351.245 78.8592 351.881 78.8584H371.361C371.997 78.8592 372.607 79.1475 373.057 79.6599C373.506 80.1724 373.759 80.8671 373.76 81.5919V107.784C373.759 108.509 373.506 109.204 373.057 109.716C372.607 110.229 371.997 110.517 371.361 110.518H351.881C351.245 110.517 350.635 110.229 350.186 109.716C349.736 109.204 349.483 108.509 349.482 107.784Z" fill="#FF6584"/>
<path d="M498.044 13.292C500.323 13.292 502.17 11.1875 502.17 8.59154C502.17 5.99557 500.323 3.89111 498.044 3.89111C495.766 3.89111 493.919 5.99557 493.919 8.59154C493.919 11.1875 495.766 13.292 498.044 13.292Z" fill="#F2F2F2"/>
<path d="M498.044 32.0251C500.323 32.0251 502.17 29.9207 502.17 27.3247C502.17 24.7287 500.323 22.6243 498.044 22.6243C495.766 22.6243 493.919 24.7287 493.919 27.3247C493.919 29.9207 495.766 32.0251 498.044 32.0251Z" fill="#F2F2F2"/>
<path d="M498.044 50.7583C500.323 50.7583 502.17 48.6538 502.17 46.0578C502.17 43.4619 500.323 41.3574 498.044 41.3574C495.766 41.3574 493.919 43.4619 493.919 46.0578C493.919 48.6538 495.766 50.7583 498.044 50.7583Z" fill="#F2F2F2"/>
<path d="M498.044 69.4916C500.323 69.4916 502.17 67.3871 502.17 64.7911C502.17 62.1952 500.323 60.0907 498.044 60.0907C495.766 60.0907 493.919 62.1952 493.919 64.7911C493.919 67.3871 495.766 69.4916 498.044 69.4916Z" fill="#F2F2F2"/>
<path d="M480.821 13.292C483.099 13.292 484.946 11.1875 484.946 8.59154C484.946 5.99557 483.099 3.89111 480.821 3.89111C478.542 3.89111 476.695 5.99557 476.695 8.59154C476.695 11.1875 478.542 13.292 480.821 13.292Z" fill="#F2F2F2"/>
<path d="M480.821 32.0251C483.099 32.0251 484.946 29.9207 484.946 27.3247C484.946 24.7287 483.099 22.6243 480.821 22.6243C478.542 22.6243 476.695 24.7287 476.695 27.3247C476.695 29.9207 478.542 32.0251 480.821 32.0251Z" fill="#F2F2F2"/>
<path d="M480.821 50.7583C483.099 50.7583 484.946 48.6538 484.946 46.0578C484.946 43.4619 483.099 41.3574 480.821 41.3574C478.542 41.3574 476.695 43.4619 476.695 46.0578C476.695 48.6538 478.542 50.7583 480.821 50.7583Z" fill="#F2F2F2"/>
<path d="M480.821 69.4916C483.099 69.4916 484.946 67.3871 484.946 64.7911C484.946 62.1952 483.099 60.0907 480.821 60.0907C478.542 60.0907 476.695 62.1952 476.695 64.7911C476.695 67.3871 478.542 69.4916 480.821 69.4916Z" fill="#F2F2F2"/>
<path d="M463.597 13.292C465.875 13.292 467.722 11.1875 467.722 8.59154C467.722 5.99557 465.875 3.89111 463.597 3.89111C461.319 3.89111 459.472 5.99557 459.472 8.59154C459.472 11.1875 461.319 13.292 463.597 13.292Z" fill="#F2F2F2"/>
<path d="M463.597 32.0251C465.875 32.0251 467.722 29.9207 467.722 27.3247C467.722 24.7287 465.875 22.6243 463.597 22.6243C461.319 22.6243 459.472 24.7287 459.472 27.3247C459.472 29.9207 461.319 32.0251 463.597 32.0251Z" fill="#F2F2F2"/>
<path d="M463.597 50.7583C465.875 50.7583 467.722 48.6538 467.722 46.0578C467.722 43.4619 465.875 41.3574 463.597 41.3574C461.319 41.3574 459.472 43.4619 459.472 46.0578C459.472 48.6538 461.319 50.7583 463.597 50.7583Z" fill="#F2F2F2"/>
<path d="M463.597 69.4916C465.875 69.4916 467.722 67.3871 467.722 64.7911C467.722 62.1952 465.875 60.0907 463.597 60.0907C461.319 60.0907 459.472 62.1952 459.472 64.7911C459.472 67.3871 461.319 69.4916 463.597 69.4916Z" fill="#F2F2F2"/>
<path d="M446.373 13.292C448.652 13.292 450.499 11.1875 450.499 8.59154C450.499 5.99557 448.652 3.89111 446.373 3.89111C444.095 3.89111 442.248 5.99557 442.248 8.59154C442.248 11.1875 444.095 13.292 446.373 13.292Z" fill="#F2F2F2"/>
<path d="M446.373 32.0251C448.652 32.0251 450.499 29.9207 450.499 27.3247C450.499 24.7287 448.652 22.6243 446.373 22.6243C444.095 22.6243 442.248 24.7287 442.248 27.3247C442.248 29.9207 444.095 32.0251 446.373 32.0251Z" fill="#F2F2F2"/>
<path d="M446.373 50.7583C448.652 50.7583 450.499 48.6538 450.499 46.0578C450.499 43.4619 448.652 41.3574 446.373 41.3574C444.095 41.3574 442.248 43.4619 442.248 46.0578C442.248 48.6538 444.095 50.7583 446.373 50.7583Z" fill="#F2F2F2"/>
<path d="M446.373 69.4916C448.652 69.4916 450.499 67.3871 450.499 64.7911C450.499 62.1952 448.652 60.0907 446.373 60.0907C444.095 60.0907 442.248 62.1952 442.248 64.7911C442.248 67.3871 444.095 69.4916 446.373 69.4916Z" fill="#F2F2F2"/>
<path d="M429.15 13.292C431.428 13.292 433.275 11.1875 433.275 8.59154C433.275 5.99557 431.428 3.89111 429.15 3.89111C426.871 3.89111 425.024 5.99557 425.024 8.59154C425.024 11.1875 426.871 13.292 429.15 13.292Z" fill="#F2F2F2"/>
<path d="M429.15 32.0251C431.428 32.0251 433.275 29.9207 433.275 27.3247C433.275 24.7287 431.428 22.6243 429.15 22.6243C426.871 22.6243 425.024 24.7287 425.024 27.3247C425.024 29.9207 426.871 32.0251 429.15 32.0251Z" fill="#F2F2F2"/>
<path d="M429.15 50.7583C431.428 50.7583 433.275 48.6538 433.275 46.0578C433.275 43.4619 431.428 41.3574 429.15 41.3574C426.871 41.3574 425.024 43.4619 425.024 46.0578C425.024 48.6538 426.871 50.7583 429.15 50.7583Z" fill="#F2F2F2"/>
<path d="M429.15 69.4916C431.428 69.4916 433.275 67.3871 433.275 64.7911C433.275 62.1952 431.428 60.0907 429.15 60.0907C426.871 60.0907 425.024 62.1952 425.024 64.7911C425.024 67.3871 426.871 69.4916 429.15 69.4916Z" fill="#F2F2F2"/>
<path d="M411.926 13.292C414.204 13.292 416.051 11.1875 416.051 8.59154C416.051 5.99557 414.204 3.89111 411.926 3.89111C409.648 3.89111 407.801 5.99557 407.801 8.59154C407.801 11.1875 409.648 13.292 411.926 13.292Z" fill="#F2F2F2"/>
<path d="M411.926 32.0251C414.204 32.0251 416.051 29.9207 416.051 27.3247C416.051 24.7287 414.204 22.6243 411.926 22.6243C409.648 22.6243 407.801 24.7287 407.801 27.3247C407.801 29.9207 409.648 32.0251 411.926 32.0251Z" fill="#F2F2F2"/>
<path d="M411.926 50.7583C414.204 50.7583 416.051 48.6538 416.051 46.0578C416.051 43.4619 414.204 41.3574 411.926 41.3574C409.648 41.3574 407.801 43.4619 407.801 46.0578C407.801 48.6538 409.648 50.7583 411.926 50.7583Z" fill="#F2F2F2"/>
<path d="M411.926 69.4916C414.204 69.4916 416.051 67.3871 416.051 64.7911C416.051 62.1952 414.204 60.0907 411.926 60.0907C409.648 60.0907 407.801 62.1952 407.801 64.7911C407.801 67.3871 409.648 69.4916 411.926 69.4916Z" fill="#F2F2F2"/>
<path d="M428.546 175.353C428.208 174.295 428.069 173.166 428.14 172.043C428.211 170.919 428.49 169.825 428.957 168.832C429.425 167.84 430.072 166.971 430.855 166.283C431.638 165.595 432.54 165.103 433.501 164.84C433.806 164.759 434.115 164.701 434.427 164.668L449.93 133.706L446.015 126.043L455.759 117.477L463.215 129.276C464.104 130.694 464.568 132.401 464.538 134.144C464.508 135.886 463.986 137.571 463.049 138.949L441.765 169.995C441.842 170.242 441.908 170.493 441.963 170.747C442.194 171.843 442.219 172.982 442.037 174.089C441.854 175.196 441.468 176.247 440.905 177.173C440.341 178.099 439.612 178.879 438.765 179.461C437.919 180.043 436.974 180.415 435.992 180.552C435.707 180.593 435.42 180.614 435.133 180.614C433.695 180.608 432.293 180.101 431.115 179.161C429.938 178.22 429.041 176.892 428.546 175.353V175.353Z" fill="#FFB8B8"/>
<path d="M398.3 327.726L390.479 327.725L386.758 293.354L398.301 293.355L398.3 327.726Z" fill="#FFB8B8"/>
<path d="M384.893 325.179H399.975V335.999H375.396C375.396 334.578 375.642 333.171 376.119 331.859C376.596 330.546 377.296 329.353 378.178 328.348C379.059 327.343 380.106 326.546 381.258 326.003C382.411 325.459 383.646 325.179 384.893 325.179V325.179Z" fill="#2F2E41"/>
<path d="M462.729 327.726L454.908 327.725L451.188 293.354L462.73 293.355L462.729 327.726Z" fill="#FFB8B8"/>
<path d="M449.322 325.179H464.404V335.999H439.825C439.825 334.578 440.071 333.171 440.548 331.859C441.025 330.546 441.725 329.353 442.607 328.348C443.488 327.343 444.535 326.546 445.688 326.003C446.84 325.459 448.075 325.179 449.322 325.179V325.179Z" fill="#2F2E41"/>
<path d="M457.929 119.151L440.37 126.753L436.083 113.186C435.514 111.384 435.522 109.411 436.106 107.616C436.69 105.82 437.812 104.318 439.274 103.374V103.374C440.753 102.419 442.483 102.098 444.152 102.469C445.82 102.84 447.317 103.879 448.373 105.397L457.929 119.151Z" fill="#4285F4"/>
<path d="M398.975 299.888L384.249 296.061C383.466 295.856 382.78 295.321 382.329 294.563C381.878 293.806 381.695 292.882 381.817 291.977C387.726 249.304 393.411 224.314 408.061 192.579C408.266 191.987 410.553 179.977 412.046 172.02C412.029 171.143 412.292 170.289 412.787 169.618C413.281 168.946 413.973 168.502 414.734 168.368L442.193 163.553C442.607 163.39 443.044 163.315 443.482 163.332L443.757 163.391L443.753 163.699C443.75 164.017 443.472 164.066 443.368 164.084L443.002 164.148C443.419 164.369 443.801 164.665 444.135 165.025C456.166 181.513 462.422 235.558 470.368 295.265C470.412 295.749 470.36 296.239 470.216 296.698C470.072 297.157 469.84 297.573 469.536 297.916C469.248 298.274 468.9 298.561 468.512 298.761C468.124 298.961 467.705 299.069 467.279 299.079L449.736 299.566C448.965 299.586 448.214 299.286 447.624 298.722C447.033 298.158 446.642 297.368 446.524 296.5L434.707 218.692C434.626 218.085 434.376 217.522 433.995 217.087C433.614 216.652 433.121 216.367 432.587 216.273C432.054 216.18 431.508 216.282 431.03 216.566C430.551 216.85 430.165 217.301 429.926 217.852C420.393 239.974 411.503 259.104 402.747 297.272C402.573 298.046 402.179 298.732 401.625 299.222C401.072 299.713 400.391 299.979 399.69 299.98C399.449 299.98 399.209 299.949 398.975 299.888V299.888Z" fill="#2F2E41"/>
<path d="M413.269 172.909C412.899 172.611 412.589 172.227 412.36 171.782C412.131 171.337 411.988 170.842 411.939 170.329C409.691 146.409 411.257 127.689 416.728 113.101C417.691 110.585 419.143 108.35 420.973 106.565C422.803 104.78 424.965 103.491 427.296 102.795L441.489 101.978L441.562 102.019C444.765 103.806 447.377 106.722 449.011 110.334C450.645 113.946 451.214 118.062 450.633 122.071C446.068 135.782 442.246 150.057 445.161 161.572C445.283 162.054 445.319 162.559 445.266 163.056C445.213 163.554 445.072 164.034 444.852 164.468C444.639 164.887 444.353 165.253 444.011 165.541C443.669 165.83 443.279 166.036 442.864 166.146L415.831 173.474C415.393 173.592 414.938 173.603 414.496 173.506C414.054 173.408 413.636 173.205 413.269 172.909V172.909Z" fill="#4285F4"/>
<path d="M407.159 138.581L379.936 114.111C379.72 114.198 379.499 114.273 379.275 114.334C378.315 114.59 377.317 114.613 376.348 114.401C375.379 114.189 374.46 113.747 373.65 113.104C372.836 112.461 372.151 111.626 371.642 110.657C371.133 109.688 370.811 108.606 370.699 107.483C370.517 105.689 370.871 103.877 371.706 102.342C372.541 100.806 373.807 99.637 375.298 99.0241C376.229 98.6437 377.219 98.4917 378.205 98.5779C379.191 98.6642 380.15 98.9868 381.019 99.5246C381.887 100.062 382.647 100.803 383.247 101.699C383.847 102.594 384.274 103.624 384.501 104.721C384.571 105.068 384.619 105.421 384.647 105.776L411.746 123.589L418.49 119.165L425.96 130.309L415.49 138.813C414.264 139.8 412.791 140.311 411.291 140.269C409.79 140.227 408.341 139.636 407.159 138.581H407.159Z" fill="#FFB8B8"/>
<path d="M429.282 133.78L413.75 121.745L421.049 109.965C422.019 108.401 423.442 107.278 425.068 106.793C426.694 106.309 428.418 106.496 429.935 107.319V107.319C431.469 108.153 432.692 109.584 433.381 111.355C434.071 113.125 434.182 115.118 433.695 116.974L429.282 133.78Z" fill="#4285F4"/>
<path d="M436.752 95.938C445.405 95.938 452.42 87.9454 452.42 78.086C452.42 68.2265 445.405 60.2339 436.752 60.2339C428.099 60.2339 421.084 68.2265 421.084 78.086C421.084 87.9454 428.099 95.938 436.752 95.938Z" fill="#FFB8B8"/>
<path d="M431.008 75.4271C426.981 78.5674 421.694 81.7955 417.581 78.4513C414.88 76.2554 414.029 72.1892 415.124 68.6208C417.094 62.2038 422.505 59.3788 427.679 57.2133C434.405 54.3982 441.729 52.1586 448.673 54.1747C455.617 56.1907 461.754 63.8511 460.5 71.89C459.492 78.3548 454.14 83.7339 454.9 90.2426C455.665 96.793 462.13 100.241 467.838 101.412C473.546 102.582 479.933 102.959 484.035 107.63C489.268 113.589 487.961 124.241 483.037 130.533C478.113 136.824 470.683 139.676 463.483 141.615C453.943 144.184 443.625 145.534 434.565 141.271C425.505 137.008 418.454 125.531 421.079 114.77C422.187 110.225 424.799 106.383 427.323 102.643C429.847 98.9032 432.403 94.9924 433.365 90.4039C434.168 86.5802 433.574 82.1406 431.349 79.2724C430.944 78.7703 430.689 78.1351 430.621 77.4578C430.553 76.7805 430.675 76.096 430.969 75.5026L431.008 75.4271Z" fill="#2F2E41"/>
</svg>
